<?xml version="1.0" standalone="no"?>
<!DOCTYPE svg PUBLIC "-//W3C//DTD SVG 20010904//EN"
 "http://www.w3.org/TR/2001/REC-SVG-20010904/DTD/svg10.dtd">
<svg version="1.0" xmlns="http://www.w3.org/2000/svg"
 width="2400.000000pt" height="2400.000000pt" viewBox="0 0 2400.000000 2400.000000"
 preserveAspectRatio="xMidYMid meet">
<metadata>
Created by potrace 1.11, written by Peter Selinger 2001-2013
</metadata>
<g transform="translate(0.000000,2400.000000) scale(0.100000,-0.100000)"
fill="#000000" stroke="none">
<path d="M10128 22385 c-1 -1 -88 -6 -193 -10 -104 -4 -215 -8 -245 -10 -94
-5 -262 -15 -320 -20 -132 -10 -218 -17 -255 -21 -22 -2 -71 -6 -110 -9 -38
-3 -83 -7 -100 -9 -16 -2 -60 -6 -96 -10 -36 -4 -76 -8 -90 -11 -13 -2 -55 -6
-92 -10 -37 -3 -77 -8 -87 -10 -10 -2 -45 -6 -77 -10 -32 -3 -65 -8 -73 -10
-8 -2 -40 -6 -71 -10 -31 -3 -65 -7 -75 -9 -11 -2 -54 -9 -97 -16 -43 -6 -88
-13 -100 -15 -20 -4 -173 -29 -252 -42 -91 -14 -403 -78 -555 -113 -96 -23
-186 -43 -200 -46 -51 -10 -261 -67 -444 -120 -433 -126 -790 -258 -1196 -441
-89 -40 -320 -155 -324 -161 -2 -4 -7 -36 -11 -72 -11 -94 -13 -116 -19 -210
-4 -47 -9 -112 -11 -145 -11 -136 -14 -196 -21 -315 -10 -206 -12 -255 -19
-495 -4 -126 -8 -231 -9 -232 -1 -1 -76 -4 -166 -8 -91 -3 -174 -7 -185 -9
-11 -2 -51 -7 -90 -11 -68 -7 -81 -9 -135 -20 -14 -2 -41 -7 -60 -10 -53 -9
-249 -54 -300 -69 -49 -15 -54 -23 -65 -129 -4 -34 -8 -69 -10 -77 -1 -8 -6
-44 -10 -80 -3 -36 -8 -76 -10 -90 -2 -14 -6 -65 -10 -115 -4 -49 -9 -108 -10
-130 -6 -70 -17 -336 -19 -462 -2 -68 -5 -125 -8 -128 -2 -3 -29 -7 -59 -10
-30 -3 -70 -7 -89 -9 -19 -2 -64 -7 -100 -11 -36 -4 -76 -8 -90 -10 -14 -2
-54 -7 -90 -10 -36 -4 -78 -9 -95 -11 -16 -2 -59 -6 -95 -9 -36 -4 -76 -8 -90
-11 -14 -2 -56 -6 -95 -10 -38 -4 -72 -8 -74 -10 -2 -2 -18 19 -35 46 -71 112
-178 198 -306 245 -65 24 -90 28 -190 29 -97 1 -126 -3 -184 -23 -81 -28 -124
-51 -186 -100 -78 -62 -131 -129 -169 -213 -157 -349 34 -736 406 -824 89 -21
234 -14 320 16 162 56 301 194 363 359 21 58 24 61 56 62 19 1 42 2 52 3 35 4
158 18 187 21 17 2 57 7 90 10 33 3 74 8 90 10 17 2 57 7 90 10 33 3 71 7 85
10 14 2 57 7 95 10 39 3 84 8 102 11 27 5 32 3 31 -12 -1 -25 11 -193 17 -224
2 -14 7 -56 10 -95 11 -125 48 -367 80 -530 33 -165 99 -413 114 -428 7 -7
185 -11 546 -11 528 -1 536 -1 540 -21 19 -96 102 -460 110 -485 3 -10 8 -28
10 -39 28 -127 138 -480 212 -681 50 -134 51 -135 89 -148 115 -40 534 -137
674 -157 25 -3 61 -10 80 -15 19 -5 51 -11 70 -13 19 -3 114 -17 210 -31 96
-14 202 -28 235 -32 33 -3 69 -8 80 -10 10 -2 49 -6 85 -10 36 -3 76 -7 90 -9
14 -3 63 -7 110 -10 47 -4 101 -8 120 -10 19 -2 82 -6 140 -10 58 -4 125 -8
150 -10 328 -24 1187 -24 1539 0 l59 4 -1 -230 c0 -225 0 -231 -21 -239 -12
-5 -61 -20 -111 -35 -183 -55 -399 -175 -570 -318 -44 -37 -83 -67 -88 -67 -4
0 -32 20 -63 45 -251 205 -630 201 -883 -10 -95 -79 -195 -230 -222 -336 l-12
-47 -86 -32 c-185 -70 -510 -220 -611 -281 -14 -9 -70 -42 -125 -74 -204 -119
-521 -342 -634 -445 -9 -8 -46 -40 -81 -70 -113 -97 -352 -330 -410 -400 -19
-23 -49 -57 -66 -74 -16 -17 -61 -69 -99 -116 -38 -47 -72 -87 -75 -90 -10 -9
-146 -193 -189 -255 -111 -161 -250 -388 -336 -550 -32 -60 -66 -123 -75 -140
-24 -43 -152 -325 -194 -427 -189 -457 -343 -994 -442 -1545 -2 -13 -6 -35 -9
-50 -9 -50 -35 -215 -40 -247 -17 -134 -35 -280 -40 -326 -3 -30 -8 -75 -10
-100 -5 -44 -8 -70 -19 -215 -21 -248 -33 -507 -35 -757 l-1 -136 -58 -32
c-167 -94 -252 -225 -264 -403 -2 -34 -8 -43 -48 -70 -25 -17 -50 -36 -56 -42
-6 -5 -34 -31 -62 -57 -261 -243 -482 -671 -595 -1154 l-24 -100 51 -27 c194
-103 419 -217 421 -215 2 2 13 55 25 118 27 146 69 304 116 445 35 105 95 263
113 295 4 8 28 54 54 101 46 88 95 165 145 230 27 35 28 36 52 20 40 -25 40
-31 2 -85 -41 -59 -126 -221 -165 -316 -63 -154 -152 -469 -172 -610 -4 -24
-8 -47 -10 -50 -2 -3 -6 -30 -10 -60 -3 -30 -7 -62 -10 -70 -2 -8 -6 -37 -9
-65 -4 -27 -8 -66 -11 -85 -3 -19 -7 -62 -10 -95 -3 -33 -7 -80 -10 -105 -3
-25 -7 -93 -10 -153 l-5 -107 53 -24 c92 -42 420 -188 463 -206 l41 -18 -3 25
c-4 41 -16 183 -19 238 -5 68 -5 531 -1 578 2 21 7 83 11 139 3 55 8 107 10
116 1 9 6 46 10 82 4 36 8 67 10 70 2 3 6 25 9 50 21 154 93 406 156 548 29
63 36 72 59 72 l27 0 -17 -84 c-9 -46 -20 -109 -23 -140 -3 -31 -9 -82 -12
-113 -8 -67 -8 -466 -1 -533 3 -25 8 -81 12 -125 10 -118 35 -313 50 -395 2
-14 9 -52 14 -85 6 -33 13 -71 16 -85 3 -14 7 -39 10 -57 6 -49 73 -346 106
-469 16 -61 29 -114 29 -117 0 -11 127 4 200 24 99 27 205 78 310 150 74 51
140 104 140 113 0 1 -18 46 -39 99 -100 245 -194 599 -236 882 -3 22 -7 54
-10 70 -9 61 -15 105 -20 162 -3 32 -7 74 -10 93 -15 107 -27 340 -30 549 l-2
183 72 72 c39 39 84 90 99 114 14 23 30 42 34 42 10 0 109 -67 152 -102 107
-90 196 -189 262 -293 56 -86 73 -119 113 -217 l32 -77 148 197 c81 108 149
202 152 208 2 7 -41 67 -97 134 -217 260 -430 444 -605 524 -33 15 -66 30 -74
34 -7 4 -20 27 -28 51 -44 132 -177 244 -333 282 -30 7 -58 17 -61 21 -3 4 -4
23 -3 40 1 18 5 98 9 178 3 80 8 170 10 200 2 30 7 96 10 145 6 96 13 178 20
235 3 19 7 64 10 100 3 36 8 76 10 90 2 14 9 69 15 124 7 54 13 108 16 119 2
12 6 39 9 62 3 22 10 65 15 95 5 30 12 73 15 95 4 22 9 49 12 60 3 11 7 31 8
45 3 30 60 302 82 385 8 33 16 67 18 75 41 198 207 722 281 885 7 17 22 53 33
82 60 155 238 509 349 693 138 231 332 499 493 684 68 77 320 331 409 411 250
225 622 472 939 622 186 88 185 87 285 126 l89 35 61 -47 c33 -26 86 -60 116
-75 30 -16 56 -30 58 -31 1 -1 -7 -23 -18 -49 -58 -136 -147 -393 -214 -616
-25 -86 -114 -434 -122 -480 -3 -14 -7 -33 -10 -42 -3 -9 -7 -27 -9 -40 -3
-13 -13 -68 -24 -123 -26 -132 -69 -370 -76 -420 -3 -22 -9 -65 -14 -95 -6
-30 -12 -77 -15 -105 -3 -27 -8 -61 -10 -75 -3 -14 -9 -65 -15 -115 -16 -132
-19 -154 -26 -220 -3 -33 -8 -73 -10 -90 -2 -16 -7 -73 -11 -125 -3 -52 -8
-103 -10 -114 -2 -10 -6 -62 -10 -115 -3 -53 -7 -116 -9 -141 -2 -25 -7 -99
-10 -165 -3 -66 -8 -154 -11 -195 -7 -131 -15 -386 -19 -672 l-3 -277 66 -50
c85 -62 251 -163 365 -220 74 -38 87 -48 88 -70 0 -14 2 -33 3 -41 2 -8 6 -43
10 -77 4 -35 8 -68 11 -75 2 -7 6 -42 9 -78 3 -36 8 -75 10 -87 3 -12 7 -46
10 -75 4 -29 8 -69 11 -88 2 -19 7 -55 10 -79 3 -23 7 -55 10 -70 2 -14 7 -51
10 -81 3 -30 7 -66 9 -80 3 -14 7 -52 11 -85 3 -33 8 -67 10 -75 2 -8 6 -42 9
-75 6 -62 13 -118 20 -170 3 -16 8 -57 11 -90 4 -33 8 -71 11 -85 2 -14 6 -49
10 -78 3 -29 7 -61 9 -70 5 -27 19 -146 31 -252 3 -30 7 -57 10 -59 2 -2 -15
-24 -37 -50 -185 -209 -221 -525 -87 -751 61 -101 166 -207 242 -241 14 -7 26
-19 26 -26 0 -8 -25 -123 -56 -256 -31 -133 -67 -287 -80 -342 -12 -55 -62
-266 -109 -470 -48 -203 -92 -397 -100 -430 -7 -33 -41 -180 -76 -327 l-62
-268 -71 -41 c-274 -161 -473 -326 -643 -534 -193 -238 -314 -540 -338 -848
l-7 -88 48 -44 c77 -72 268 -160 394 -180 19 -3 42 -8 50 -10 125 -35 489 -32
740 6 131 20 173 28 295 54 39 8 82 18 97 21 36 7 386 107 459 131 61 19 94
51 194 182 229 299 320 623 255 904 -7 29 -27 84 -44 122 -28 61 -39 105 -61
255 -2 14 -6 45 -9 70 -3 25 -8 55 -10 67 -3 12 -7 48 -11 80 -3 32 -8 65 -10
73 -2 8 -6 38 -10 65 -8 68 -33 243 -39 280 -3 17 -8 51 -11 77 -4 42 -9 77
-29 218 -9 63 -37 264 -42 300 -3 19 -7 46 -9 60 -3 14 -7 48 -10 75 -4 28
-10 77 -15 110 -5 33 -12 78 -15 100 -3 22 -8 54 -10 70 -3 17 -7 51 -10 76
-3 26 -7 55 -9 65 -2 11 -7 44 -11 74 -3 30 -8 66 -10 80 -2 14 -9 61 -15 105
-6 44 -13 92 -16 106 -4 23 1 30 40 53 64 37 157 131 203 202 22 34 52 100 68
145 23 70 28 101 28 189 0 58 -5 124 -12 147 -11 39 -8 50 34 170 25 70 50
139 56 152 6 13 30 81 55 150 25 69 61 169 81 221 19 52 60 165 90 250 30 85
60 169 68 185 7 17 20 50 28 75 8 25 51 144 95 265 44 121 86 238 93 261 l13
41 310 -1 c171 0 361 3 421 6 61 4 151 10 200 14 l90 6 11 -29 c6 -15 16 -41
22 -58 6 -16 48 -131 93 -255 44 -124 100 -279 124 -345 24 -66 87 -239 140
-385 53 -146 110 -303 127 -350 16 -47 34 -95 39 -107 19 -48 28 -70 54 -145
25 -72 26 -81 14 -135 -52 -247 61 -517 277 -660 l56 -37 -7 -45 c-3 -26 -8
-57 -10 -71 -19 -131 -26 -181 -30 -219 -2 -24 -6 -51 -9 -60 -3 -9 -7 -41
-11 -72 -3 -31 -7 -65 -9 -75 -2 -11 -7 -44 -11 -74 -6 -54 -10 -82 -19 -137
-3 -16 -7 -47 -10 -70 -3 -24 -9 -62 -12 -85 -10 -74 -11 -82 -19 -143 -4 -33
-9 -69 -11 -80 -2 -10 -6 -37 -9 -60 -3 -22 -8 -51 -10 -65 -2 -14 -7 -49 -10
-79 -4 -30 -9 -63 -11 -75 -2 -12 -8 -55 -14 -96 -14 -106 -19 -140 -25 -180
-3 -19 -7 -55 -10 -80 -3 -25 -10 -72 -15 -105 -5 -33 -12 -80 -15 -105 -2
-25 -7 -63 -11 -85 -3 -22 -8 -53 -10 -70 -2 -16 -6 -41 -9 -55 -2 -14 -7 -47
-10 -75 -3 -27 -21 -82 -40 -121 -138 -285 -125 -606 40 -934 45 -90 114 -198
136 -216 12 -9 133 -50 254 -85 192 -55 506 -123 670 -145 22 -3 51 -7 65 -10
14 -2 52 -6 85 -10 33 -3 71 -7 85 -10 143 -23 691 -23 830 0 14 3 50 7 80 10
30 4 80 11 110 16 30 5 71 12 90 15 112 19 363 91 462 134 l44 19 -3 58 c-9
135 -54 301 -119 435 -131 270 -415 543 -779 753 -158 90 -488 240 -620 280
-17 5 -29 47 -87 298 -37 161 -95 410 -128 553 -33 143 -93 397 -132 565 -39
168 -88 379 -109 470 -21 91 -39 168 -39 172 0 3 31 27 70 53 116 77 207 198
253 335 69 208 13 461 -139 630 -40 44 -39 32 -19 180 11 89 15 118 20 160 3
25 7 61 10 80 3 19 7 55 10 80 3 25 7 61 10 80 4 32 7 58 20 163 6 42 8 62 30
232 8 66 17 139 20 163 3 23 7 60 10 82 3 22 7 59 10 83 3 23 7 58 10 77 3 19
7 58 10 85 3 28 7 61 10 75 2 14 7 50 10 80 3 30 8 66 10 80 2 14 7 50 10 80
3 30 8 66 10 80 3 14 7 50 10 80 3 30 7 66 10 80 2 14 7 48 10 75 4 45 10 54
57 95 68 57 184 175 204 204 8 13 16 41 18 62 5 51 18 243 21 319 2 33 6 141
10 240 15 339 10 1024 -10 1405 -7 134 -28 407 -39 515 -3 28 -8 75 -11 105
-14 130 -37 310 -50 390 -3 14 -7 50 -11 80 -3 30 -8 57 -9 60 -2 3 -6 26 -10
50 -9 64 -71 370 -95 470 -11 47 -23 95 -26 108 -2 13 -24 90 -48 173 -33 113
-40 149 -29 149 7 0 47 16 88 35 l74 36 83 -82 c176 -173 424 -373 653 -526
511 -341 1107 -571 1680 -648 22 -3 54 -7 70 -10 33 -5 153 -16 230 -21 75 -4
422 -4 485 1 198 16 223 19 435 51 355 55 932 237 1370 434 39 17 93 41 120
53 58 25 412 203 468 236 59 33 237 141 282 170 22 14 48 31 56 36 207 129
493 361 698 565 325 324 556 666 698 1035 19 50 36 91 37 92 2 2 29 6 62 9
111 12 287 71 340 115 11 9 24 7 56 -6 65 -26 208 -74 208 -70 0 3 11 0 25 -5
14 -5 38 -12 53 -15 156 -32 211 -37 372 -38 161 0 217 5 395 38 105 20 284
83 413 146 93 46 105 55 122 92 20 46 39 102 45 139 3 13 9 46 14 73 14 69 6
296 -12 375 -8 36 -25 96 -37 134 l-22 70 -62 -65 c-295 -306 -682 -456 -1166
-450 -63 0 -124 3 -135 5 -11 3 -24 5 -28 5 -7 1 -2 160 5 166 2 2 32 17 68
35 118 59 233 144 346 255 217 215 363 460 473 795 41 124 91 325 91 367 0 28
-74 93 -143 126 -66 31 -199 73 -258 82 -24 4 -66 11 -93 16 -101 19 -99 20
-128 -83 -61 -217 -172 -451 -321 -675 -118 -177 -284 -383 -309 -383 -6 0
-35 18 -64 40 -29 22 -57 40 -61 40 -4 0 -16 7 -26 14 -18 14 -17 16 7 55 26
40 186 355 186 365 0 3 11 29 24 58 23 52 54 136 94 253 57 168 101 405 107
585 4 98 -2 108 -77 146 -125 63 -310 87 -534 69 l-92 -7 -2 -86 c-5 -238 -22
-463 -50 -662 -15 -108 -21 -144 -25 -160 -3 -8 -7 -33 -10 -55 -14 -91 -59
-274 -93 -378 -32 -94 -41 -111 -62 -118 -14 -3 -54 -15 -90 -25 -176 -49
-338 -157 -443 -294 l-27 -35 -63 65 c-35 36 -94 103 -131 150 -37 47 -73 92
-79 100 -33 41 -151 227 -198 313 -30 53 -58 97 -64 97 -33 0 -224 -104 -284
-155 -37 -31 -131 -129 -131 -137 0 -3 -6 -13 -14 -20 -8 -8 -26 -38 -41 -68
-23 -45 -25 -57 -15 -78 10 -23 130 -208 157 -242 102 -130 200 -235 301 -318
62 -51 166 -122 179 -122 3 0 14 -6 22 -14 23 -20 189 -84 238 -92 41 -6 44
-9 79 -81 44 -88 153 -209 242 -269 l60 -40 -23 -57 c-81 -197 -274 -499 -415
-647 -251 -266 -418 -408 -700 -597 -328 -219 -763 -440 -1160 -588 -41 -15
-88 -33 -105 -40 -16 -7 -106 -39 -200 -70 -220 -73 -464 -136 -629 -161 -21
-3 -48 -8 -60 -10 -11 -2 -44 -7 -72 -9 -28 -3 -60 -7 -72 -10 -49 -9 -245
-19 -382 -19 -218 0 -345 11 -575 50 -24 4 -181 39 -220 48 -386 97 -788 286
-1150 540 -55 38 -102 72 -105 75 -3 4 -23 19 -45 36 -22 16 -45 34 -51 40 -6
5 -28 24 -49 40 -73 57 -141 119 -281 259 l-141 141 0 55 c-1 308 -219 585
-526 667 -86 23 -271 23 -352 -1 -94 -28 -185 -74 -254 -128 l-34 -27 -61 52
c-33 29 -72 62 -86 75 -13 12 -28 22 -32 22 -3 0 -13 6 -20 13 -49 47 -255
151 -378 190 -94 30 -105 33 -205 49 l-70 11 0 313 c0 172 3 315 7 319 4 4 44
14 90 21 46 8 94 17 108 19 14 3 63 12 110 20 47 8 99 17 115 20 17 3 37 8 45
10 8 3 32 7 54 11 21 3 48 8 60 10 38 8 121 25 146 30 14 3 45 10 70 15 25 6
56 13 70 15 26 5 79 17 235 54 50 11 99 22 110 25 11 2 85 20 165 40 80 20
152 38 160 40 241 56 830 230 1250 369 221 72 651 224 720 253 8 3 17 7 20 8
3 0 31 11 63 23 31 12 81 31 111 42 l54 21 7 56 c4 32 8 64 10 73 1 8 6 46 10
83 3 37 8 76 10 85 1 9 6 46 9 82 4 36 9 76 11 90 2 14 7 52 10 85 3 33 7 80
10 105 2 25 7 74 10 110 3 36 7 85 10 110 5 50 11 119 20 225 3 39 7 97 10
130 5 64 11 150 20 310 3 55 9 103 13 106 4 4 49 10 100 14 51 3 101 8 110 10
9 1 51 6 92 10 41 4 84 9 95 11 11 2 40 6 65 9 25 3 59 8 75 10 17 2 53 7 80
10 28 4 91 13 140 21 50 7 108 16 130 19 22 4 47 8 55 10 8 2 38 7 65 11 28 3
59 8 70 10 10 2 37 6 60 10 22 3 41 6 42 7 3 4 13 73 23 162 6 50 13 104 15
120 18 137 27 683 13 873 -5 79 -4 82 16 83 11 0 30 2 41 4 11 2 47 7 80 11
33 3 67 7 75 9 8 2 47 6 85 9 39 4 77 9 85 11 8 2 46 6 83 10 37 3 76 8 85 10
10 2 48 6 84 9 37 4 77 9 89 11 13 3 53 7 89 10 l65 6 21 -38 c74 -131 221
-232 388 -267 133 -27 304 3 420 76 69 43 165 141 203 208 219 387 -55 876
-495 883 -76 1 -155 -7 -173 -18 -5 -4 -18 -8 -28 -10 -11 -2 -44 -16 -74 -30
-131 -64 -240 -184 -292 -321 -22 -58 -33 -74 -49 -75 -12 0 -30 -2 -41 -4
-11 -2 -47 -7 -80 -10 -33 -3 -71 -8 -85 -10 -14 -2 -54 -7 -90 -11 -36 -3
-74 -8 -84 -10 -11 -2 -44 -6 -75 -10 -31 -3 -67 -7 -81 -9 -14 -1 -52 -6 -86
-9 -33 -4 -71 -8 -85 -11 -13 -2 -49 -6 -80 -10 l-56 -5 -7 52 c-4 29 -9 71
-12 93 -11 83 -46 285 -71 410 -14 72 -27 141 -30 155 -2 14 -9 43 -15 65 -5
22 -12 51 -14 65 -7 41 -93 363 -105 391 -11 28 -31 32 -266 54 -68 7 -446 6
-513 0 -36 -4 -110 -13 -164 -21 -55 -8 -104 -14 -110 -14 -6 0 -20 44 -30 98
-52 274 -166 668 -256 887 -22 55 -40 100 -40 101 0 2 -21 6 -47 9 -27 4 -64
11 -83 15 -19 5 -55 11 -80 14 -25 4 -56 8 -70 11 -14 2 -74 11 -135 20 -60 9
-117 18 -125 20 -8 2 -44 7 -80 10 -36 4 -67 8 -70 10 -3 2 -34 6 -70 10 -36
3 -72 8 -80 10 -8 2 -42 6 -75 10 -33 3 -71 8 -85 10 -14 2 -50 6 -80 9 -30 4
-73 8 -95 11 -83 10 -217 24 -280 31 -16 1 -70 6 -120 9 -49 4 -92 9 -96 11
-3 1 -52 6 -110 9 -57 4 -112 9 -121 10 -15 3 -155 14 -253 20 -52 3 -254 16
-325 20 -30 2 -116 7 -190 10 -74 3 -182 8 -240 11 -112 6 -1356 15 -1362 9z"/>
</g>
</svg>
